<svg width="2055" height="2408" viewBox="0 0 2055 2408" fill="none" xmlns="http://www.w3.org/2000/svg">
<g opacity="0.2">
<path opacity="0.0714286" d="M183.416 1957.98C191.473 1629.81 232.922 1033.13 844.039 916.558C1225.01 843.886 1413.93 526.09 1295.91 257.485" stroke="white" stroke-width="1.17484"/>
<path opacity="0.142857" d="M174.048 1964.46C210.237 1639 302.717 1049.62 921.137 987.67C1306.66 949.053 1522.02 649.861 1427.58 372.482" stroke="white" stroke-width="1.17484"/>
<path opacity="0.214286" d="M163.628 1970.33C227.54 1649.99 370.102 1072.24 990.958 1065.3C1378 1060.97 1618 782.569 1547.77 498.477" stroke="white" stroke-width="1.17484"/>
<path opacity="0.285714" d="M152.212 1975.51C243.236 1662.63 434.561 1100.75 1052.98 1148.76C1438.5 1178.69 1701.16 923.086 1655.59 634.388" stroke="white" stroke-width="1.17484"/>
<path opacity="0.357143" d="M139.866 1979.9C257.192 1676.77 495.607 1134.86 1106.73 1237.33C1487.71 1301.22 1770.89 1070.24 1750.25 779.067" stroke="white" stroke-width="1.17484"/>
<path opacity="0.428571" d="M126.661 1983.44C269.287 1692.24 552.776 1174.22 1151.83 1330.26C1525.28 1427.53 1826.69 1222.8 1831.08 931.302" stroke="white" stroke-width="1.17484"/>
<path opacity="0.5" d="M112.674 1986.04C279.417 1708.89 605.64 1218.48 1187.95 1426.75C1550.95 1556.58 1868.18 1379.51 1897.5 1089.83" stroke="white" stroke-width="1.17484"/>
<path opacity="0.571429" d="M97.991 1987.65C287.493 1726.53 653.805 1267.23 1214.82 1525.99C1564.56 1687.29 1895.08 1539.09 1949.04 1253.34" stroke="white" stroke-width="1.17484"/>
<path opacity="0.642857" d="M82.7004 1988.21C293.443 1744.96 696.913 1320.03 1232.28 1627.15C1566.03 1818.6 1907.23 1700.22 1985.38 1420.51" stroke="white" stroke-width="1.17484"/>
<path opacity="0.714286" d="M66.8963 1987.66C297.212 1764.01 734.649 1376.42 1240.21 1729.39C1555.38 1949.43 1904.6 1861.6 2006.3 1589.96" stroke="white" stroke-width="1.17484"/>
<path opacity="0.785714" d="M50.6766 1985.97C298.759 1783.48 766.738 1435.91 1238.59 1831.87C1532.74 2078.71 1887.24 2021.94 2011.69 1760.34" stroke="white" stroke-width="1.17484"/>
<path opacity="0.857143" d="M34.1423 1983.11C298.064 1803.17 792.949 1497.99 1227.45 1933.75C1498.31 2205.41 1855.36 2179.93 2001.57 1930.27" stroke="white" stroke-width="1.17484"/>
<path opacity="0.928571" d="M17.3971 1979.06C295.123 1822.87 813.098 1562.13 1206.91 2034.2C1452.41 2328.49 1809.24 2334.32 1976.09 2098.4" stroke="white" stroke-width="1.17484"/>
<path d="M0.545898 1973.79C289.949 1842.41 827.048 1627.8 1177.15 2132.4C1395.4 2446.96 1749.3 2483.87 1935.51 2263.39" stroke="white" stroke-width="1.17484"/>
</g>
</svg>
