<svg width="219" height="219" viewBox="0 0 219 219" fill="none" xmlns="http://www.w3.org/2000/svg">
<g opacity="0.2">
<rect width="10.4286" height="10.4286" fill="white"/>
<rect x="52.1428" width="10.4286" height="10.4286" fill="white"/>
<rect x="104.286" width="10.4286" height="10.4286" fill="white"/>
<rect x="156.428" width="10.4286" height="10.4286" fill="white"/>
<rect x="208.572" width="10.4286" height="10.4286" fill="white"/>
<rect y="52.1428" width="10.4286" height="10.4286" fill="white"/>
<rect x="52.1428" y="52.1429" width="10.4286" height="10.4286" fill="white"/>
<rect x="104.286" y="52.1429" width="10.4286" height="10.4286" fill="white"/>
<rect x="156.428" y="52.1429" width="10.4286" height="10.4286" fill="white"/>
<rect x="208.572" y="52.1429" width="10.4286" height="10.4286" fill="white"/>
<rect y="104.286" width="10.4286" height="10.4286" fill="white"/>
<rect x="52.1428" y="104.286" width="10.4286" height="10.4286" fill="white"/>
<rect x="104.286" y="104.286" width="10.4286" height="10.4286" fill="white"/>
<rect x="156.428" y="104.286" width="10.4286" height="10.4286" fill="white"/>
<rect x="208.572" y="104.286" width="10.4286" height="10.4286" fill="white"/>
<rect y="156.429" width="10.4286" height="10.4286" fill="white"/>
<rect x="52.1428" y="156.429" width="10.4286" height="10.4286" fill="white"/>
<rect x="104.286" y="156.429" width="10.4286" height="10.4286" fill="white"/>
<rect x="156.428" y="156.429" width="10.4286" height="10.4286" fill="white"/>
<rect x="208.572" y="156.429" width="10.4286" height="10.4286" fill="white"/>
<rect y="208.571" width="10.4286" height="10.4286" fill="white"/>
<rect x="52.1428" y="208.571" width="10.4286" height="10.4286" fill="white"/>
<rect x="104.286" y="208.571" width="10.4286" height="10.4286" fill="white"/>
<rect x="156.428" y="208.571" width="10.4286" height="10.4286" fill="white"/>
<rect x="208.572" y="208.571" width="10.4286" height="10.4286" fill="white"/>
</g>
</svg>
