<svg width="25" height="25" viewBox="0 0 25 25" fill="none" xmlns="http://www.w3.org/2000/svg">
<path d="M12.5046 6.88477C9.39917 6.88477 6.89429 9.38965 6.89429 12.4951C6.89429 15.6006 9.39917 18.1055 12.5046 18.1055C15.6101 18.1055 18.115 15.6006 18.115 12.4951C18.115 9.38965 15.6101 6.88477 12.5046 6.88477ZM12.5046 16.1426C10.4978 16.1426 8.85718 14.5068 8.85718 12.4951C8.85718 10.4834 10.4929 8.84766 12.5046 8.84766C14.5164 8.84766 16.1521 10.4834 16.1521 12.4951C16.1521 14.5068 14.5115 16.1426 12.5046 16.1426ZM19.6531 6.65527C19.6531 7.38281 19.0671 7.96387 18.3445 7.96387C17.6169 7.96387 17.0359 7.37793 17.0359 6.65527C17.0359 5.93262 17.6218 5.34668 18.3445 5.34668C19.0671 5.34668 19.6531 5.93262 19.6531 6.65527ZM23.3689 7.9834C23.2859 6.23047 22.8855 4.67773 21.6013 3.39844C20.322 2.11914 18.7693 1.71875 17.0164 1.63086C15.2097 1.52832 9.79468 1.52832 7.98804 1.63086C6.23999 1.71387 4.68726 2.11426 3.40308 3.39355C2.1189 4.67285 1.72339 6.22559 1.6355 7.97852C1.53296 9.78516 1.53296 15.2002 1.6355 17.0068C1.71851 18.7598 2.1189 20.3125 3.40308 21.5918C4.68726 22.8711 6.23511 23.2715 7.98804 23.3594C9.79468 23.4619 15.2097 23.4619 17.0164 23.3594C18.7693 23.2764 20.322 22.876 21.6013 21.5918C22.8806 20.3125 23.281 18.7598 23.3689 17.0068C23.4714 15.2002 23.4714 9.79004 23.3689 7.9834ZM21.0349 18.9453C20.6541 19.9023 19.9167 20.6396 18.9548 21.0254C17.5144 21.5967 14.0964 21.4648 12.5046 21.4648C10.9128 21.4648 7.48999 21.5918 6.05444 21.0254C5.09741 20.6445 4.36011 19.9072 3.97437 18.9453C3.40308 17.5049 3.53491 14.0869 3.53491 12.4951C3.53491 10.9033 3.40796 7.48047 3.97437 6.04492C4.35522 5.08789 5.09253 4.35059 6.05444 3.96484C7.49487 3.39355 10.9128 3.52539 12.5046 3.52539C14.0964 3.52539 17.5193 3.39844 18.9548 3.96484C19.9119 4.3457 20.6492 5.08301 21.0349 6.04492C21.6062 7.48535 21.4744 10.9033 21.4744 12.4951C21.4744 14.0869 21.6062 17.5098 21.0349 18.9453Z" fill="white" fill-opacity="0.7"/>
</svg>
