<svg width="25" height="25" viewBox="0 0 25 25" fill="none" xmlns="http://www.w3.org/2000/svg">
<path d="M22.4302 7.40791C22.446 7.62998 22.446 7.8521 22.446 8.07417C22.446 14.8476 17.2906 22.6522 7.86802 22.6522C4.96509 22.6522 2.26841 21.8114 0 20.3521C0.412451 20.3997 0.808984 20.4155 1.2373 20.4155C3.63257 20.4155 5.83755 19.6065 7.59834 18.2265C5.3458 18.1789 3.45811 16.7036 2.80771 14.6731C3.125 14.7207 3.44224 14.7524 3.77539 14.7524C4.2354 14.7524 4.69546 14.689 5.12373 14.578C2.77603 14.102 1.01519 12.0399 1.01519 9.54941V9.48599C1.69727 9.8667 2.49048 10.1046 3.33115 10.1363C1.95107 9.21626 1.04692 7.64585 1.04692 5.86919C1.04692 4.91743 1.30068 4.04497 1.74487 3.28354C4.26709 6.39268 8.05835 8.4231 12.3096 8.64522C12.2303 8.2645 12.1827 7.86797 12.1827 7.47139C12.1827 4.64775 14.4669 2.34766 17.3064 2.34766C18.7816 2.34766 20.1141 2.96631 21.05 3.96567C22.208 3.7436 23.3184 3.31528 24.302 2.72837C23.9212 3.91812 23.1122 4.91748 22.0494 5.55195C23.0805 5.44097 24.0799 5.15537 24.9999 4.75884C24.302 5.77402 23.4295 6.67817 22.4302 7.40791Z" fill="white" fill-opacity="0.7"/>
</svg>
